<?xml version="1.0" encoding="utf-8"?>
<svg width="10px" height="12px" viewBox="0 0 10 12" version="1.1" xmlns:xlink="http://www.w3.org/1999/xlink" xmlns="http://www.w3.org/2000/svg">
  <desc>Created with Lunacy</desc>
  <g id="copy">
    <path d="M9.68618 1.54549L8.5281 0.329508C8.32717 0.118529 8.05465 0 7.77049 0L3.92857 0C3.33683 0 2.85714 0.503672 2.85714 1.125L2.85714 2.25L1.07143 2.25C0.479687 2.25 0 2.75367 0 3.375L0 10.875C0 11.4963 0.479687 12 1.07143 12L6.07143 12C6.66317 12 7.14286 11.4963 7.14286 10.875L7.14286 9.75L8.92857 9.75C9.52031 9.75 10 9.24633 10 8.625L10 2.34098C10 2.04262 9.88712 1.75647 9.68618 1.54549ZM8.79464 8.625L4.0625 8.625C3.98853 8.625 3.92857 8.56204 3.92857 8.48438L3.92857 1.26563C3.92857 1.18796 3.98853 1.125 4.0625 1.125L6.42857 1.125L6.42857 3.1875C6.42857 3.49816 6.66842 3.75 6.96429 3.75L8.92857 3.75L8.92857 8.48438C8.92857 8.56204 8.86861 8.625 8.79464 8.625ZM7.5 2.625L8.92857 2.625L8.92857 2.39925C8.92858 2.36195 8.91447 2.32618 8.88935 2.2998L7.80971 1.16618C7.78458 1.13981 7.75051 1.125 7.715 1.125L7.5 1.125L7.5 2.625ZM1.20536 10.875L5.9375 10.875C6.01147 10.875 6.07143 10.812 6.07143 10.7344L6.07143 9.75L3.92857 9.75C3.33683 9.75 2.85714 9.24633 2.85714 8.625L2.85714 3.375L1.20536 3.375C1.13139 3.375 1.07143 3.43796 1.07143 3.51563L1.07143 10.7344C1.07143 10.812 1.13139 10.875 1.20536 10.875Z" id="Shape" fill="#3E3F42" fill-rule="evenodd" stroke="none" />
  </g>
</svg>